<?xml version="1.0" encoding="UTF-8"?><svg id="Layer_2" xmlns="http://www.w3.org/2000/svg" viewBox="0 0 266.16 250.33"><g id="Layer_1-2"><path d="M153.49,128.13c16.03-11.86,28.55-24.87,37.55-39.03s13.5-28.27,13.5-42.32c0-7.03-1.15-12.19-3.46-15.48s-5.43-4.94-9.39-4.94c-10.32,0-19.43,8.73-27.34,26.19-7.91,17.46-11.86,37.16-11.86,59.12,0,3.07.05,5.98.16,8.73.11,2.74.38,5.32.82,7.74ZM22.07,188.4c-2.42,2.42-5.49,3.62-9.22,3.62s-6.81-1.21-9.22-3.62-3.62-5.49-3.62-9.22,1.21-6.81,3.62-9.22l11.86-11.86-11.86-11.86c-2.42-2.42-3.62-5.49-3.62-9.22s1.21-6.81,3.62-9.22,5.49-3.62,9.22-3.62,6.81,1.21,9.22,3.62l11.86,11.86,11.86-11.86c2.42-2.42,5.49-3.62,9.22-3.62s6.81,1.21,9.22,3.62,3.62,5.49,3.62,9.22-1.21,6.81-3.62,9.22l-11.86,11.86,11.86,11.86c2.42,2.42,3.62,5.49,3.62,9.22s-1.21,6.81-3.62,9.22-5.49,3.62-9.22,3.62-6.81-1.21-9.22-3.62l-11.86-11.86-11.86,11.86ZM171.6,184.45c-6.59,0-12.63-1.26-18.12-3.79s-10.21-6.64-14.16-12.35c-3.51,1.76-7.14,3.51-10.87,5.27l-11.2,5.27c-3.51,1.54-6.97,1.59-10.38.16s-5.76-3.9-7.08-7.41-1.15-6.92.49-10.21,4.23-5.71,7.74-7.25c3.73-1.76,7.36-3.46,10.87-5.11s6.92-3.35,10.21-5.11c-1.1-4.83-1.92-10.1-2.47-15.81s-.82-11.86-.82-18.45c0-31.62,6.26-57.81,18.77-78.56S172.81,0,191.7,0c11.42,0,20.75,4.23,28,12.68s10.87,20.26,10.87,35.41c0,18.88-5.98,37.55-17.95,55.99s-28.6,35.02-49.9,49.74c1.54,1.54,3.13,2.69,4.78,3.46s3.35,1.15,5.11,1.15c4.61,0,9.99-2.53,16.14-7.58s12.08-11.86,17.79-20.42c2.2-3.07,5-5.22,8.4-6.42s6.75-1.04,10.05.49c3.29,1.76,5.71,4.34,7.25,7.74s1.98,6.97,1.32,10.7c-.44,2.64-.66,5.16-.66,7.58s.33,4.72.99,6.92c1.1-.44,2.36-1.15,3.79-2.14s2.91-2.25,4.45-3.79c2.64-2.42,5.76-3.79,9.39-4.12s6.86.6,9.72,2.8c3.07,2.42,4.72,5.38,4.94,8.89s-.88,6.48-3.29,8.89c-5.05,5.05-10.38,9.06-15.97,12.02s-10.92,4.45-15.97,4.45c-4.61,0-8.73-1.37-12.35-4.12s-6.64-6.97-9.06-12.68c-6.15,5.49-12.41,9.66-18.77,12.52s-12.74,4.28-19.1,4.28ZM20.75,250.33c-3.73,0-6.86-1.26-9.39-3.79-2.53-2.53-3.79-5.65-3.79-9.39s1.26-6.86,3.79-9.39c2.53-2.53,5.65-3.79,9.39-3.79s6.86,1.26,9.39,3.79,3.79,5.65,3.79,9.39-1.26,6.86-3.79,9.39c-2.53,2.53-5.65,3.79-9.39,3.79ZM73.45,250.33c-3.73,0-6.86-1.26-9.39-3.79-2.53-2.53-3.79-5.65-3.79-9.39s1.26-6.86,3.79-9.39,5.65-3.79,9.39-3.79,6.86,1.26,9.39,3.79,3.79,5.65,3.79,9.39-1.26,6.86-3.79,9.39c-2.53,2.53-5.65,3.79-9.39,3.79ZM126.15,250.33c-3.73,0-6.86-1.26-9.39-3.79-2.53-2.53-3.79-5.65-3.79-9.39s1.26-6.86,3.79-9.39,5.65-3.79,9.39-3.79,6.86,1.26,9.39,3.79c2.53,2.53,3.79,5.65,3.79,9.39s-1.26,6.86-3.79,9.39c-2.53,2.53-5.65,3.79-9.39,3.79ZM178.85,250.33c-3.73,0-6.86-1.26-9.39-3.79-2.53-2.53-3.79-5.65-3.79-9.39s1.26-6.86,3.79-9.39,5.65-3.79,9.39-3.79,6.86,1.26,9.39,3.79,3.79,5.65,3.79,9.39-1.26,6.86-3.79,9.39c-2.53,2.53-5.65,3.79-9.39,3.79ZM231.55,250.33c-3.73,0-6.86-1.26-9.39-3.79-2.53-2.53-3.79-5.65-3.79-9.39s1.26-6.86,3.79-9.39,5.65-3.79,9.39-3.79,6.86,1.26,9.39,3.79,3.79,5.65,3.79,9.39-1.26,6.86-3.79,9.39c-2.53,2.53-5.65,3.79-9.39,3.79Z" style="fill:#7f7c7f;"/></g></svg>