<?xml version="1.0" encoding="UTF-8"?><svg id="Layer_2" xmlns="http://www.w3.org/2000/svg" viewBox="0 0 84.52 84.52"><g id="Layer_1-2"><path d="M81.19,25.76c-2.22-5.14-5.23-9.61-9.04-13.41-3.8-3.8-8.28-6.81-13.42-9.03-5.15-2.22-10.64-3.32-16.49-3.32s-11.33,1.11-16.47,3.33c-5.14,2.22-9.61,5.23-13.41,9.03-3.81,3.81-6.82,8.28-9.03,13.43-2.22,5.14-3.33,10.64-3.33,16.48s1.11,11.34,3.33,16.48c2.22,5.14,5.23,9.61,9.04,13.41,3.8,3.8,8.28,6.81,13.42,9.03,5.15,2.22,10.64,3.33,16.49,3.33.48,0,.96-.01,1.44-.02v-4.7c-.48.01-.97.02-1.46.02-2.18,0-4.33-.19-6.42-.56-2.1-.38-4.11-.92-6.04-1.61v-12.82h11.92v-4.01c0-4.42-1.54-8.17-4.62-11.24-3.07-3.08-6.83-4.62-11.27-4.62H4.79c-.06-.48-.09-.93-.09-1.35v-1.35c0-10.49,3.63-19.37,10.91-26.65S31.77,4.69,42.26,4.69c2.37,0,4.67.21,6.88.62,2.21.42,4.37,1.03,6.48,1.85-2.08.19-3.86.95-5.35,2.26s-2.23,3.1-2.23,5.38v3.62h-3.97c-2.19,0-4.06.78-5.62,2.35-1.55,1.57-2.33,3.44-2.33,5.62v7.94h15.89v3.96c0,2.19.78,4.05,2.34,5.61s3.42,2.33,5.61,2.33h11.92c2.11,0,3.88-.68,5.34-2.05,1.45-1.37,2.28-3.1,2.49-5.18.06.51.09,1.04.1,1.6s.01,1.11.01,1.66c0,2.92-.28,5.72-.85,8.39h4.74c.54-2.71.81-5.52.81-8.41,0-5.84-1.11-11.34-3.33-16.48Z" style="fill:#e8eaed;"/><path d="M65.39,52.79l2.77,8.52h8.96c1.94,0,2.75,2.49,1.18,3.63l-7.25,5.27,2.77,8.52c.6,1.85-1.51,3.39-3.09,2.24l-7.25-5.27-7.25,5.27c-1.57,1.14-3.69-.39-3.09-2.24l2.77-8.52-7.25-5.27c-1.57-1.14-.76-3.63,1.18-3.63h8.96s2.77-8.52,2.77-8.52c.6-1.85,3.22-1.85,3.82,0Z" style="fill:#45b7ff;"/></g></svg>