<?xml version="1.0" encoding="UTF-8"?><svg id="Layer_2" xmlns="http://www.w3.org/2000/svg" viewBox="0 0 434.23 411.96"><g id="Layer_1-2"><path d="M349.97,284.67c-5.92-5.92-13.09-8.88-21.51-8.88-5.34,0-10.18,1.27-14.52,3.8-4.34,2.55-7.78,5.84-10.32,9.9h-125.47v16.7c0,19.98-7.07,37.04-21.2,51.17s-31.19,21.2-51.18,21.2-37.04-7.07-51.17-21.2-21.2-31.19-21.2-51.17c0-14.9,4.18-28.39,12.53-40.47,8.35-12.08,19.02-20.77,32.01-26.08v-35.07c-22.61,5.91-41.25,18.19-55.93,36.84C7.34,260.07,0,281.66,0,306.19c0,29.23,10.32,54.17,30.96,74.81,20.64,20.64,45.58,30.96,74.81,30.96,25.67,0,48.4-8.23,68.2-24.69,19.8-16.45,31.87-37.91,36.21-64.38h93.44c2.54,4.2,5.94,7.53,10.21,10,4.27,2.47,9.15,3.7,14.63,3.7,8.42,0,15.59-2.96,21.51-8.89,5.93-5.92,8.89-13.09,8.89-21.51s-2.96-15.6-8.89-21.52ZM403.27,231.38c-20.64-20.65-45.58-30.97-74.81-30.97-4.06,0-7.93.2-11.63.6-3.7.4-7.25.97-10.64,1.71l-36.24-60.84c-7.44,8.55-17.39,14.84-28.7,17.75l50.72,84.51c5.43-3.37,11.12-5.94,17.07-7.69,5.95-1.76,12.42-2.63,19.42-2.63,19.98,0,37.04,7.06,51.17,21.2,14.13,14.12,21.2,31.18,21.2,51.17s-7.07,37.04-21.2,51.17-31.19,21.2-51.17,21.2c-7.83,0-15.39-1.21-22.7-3.64s-13.78-5.78-19.4-10.06h-45.43c9.79,14.41,22.27,25.87,37.45,34.36,15.17,8.49,31.86,12.74,50.08,12.74,29.23,0,54.17-10.32,74.81-30.96,20.64-20.64,30.96-45.58,30.96-74.81s-10.32-54.17-30.96-74.81ZM303.06,30.96C282.42,10.32,257.48,0,228.25,0s-54.17,10.32-74.81,30.96c-20.64,20.64-30.97,45.58-30.97,74.81,0,15.68,3.14,30.4,9.41,44.18,6.26,13.77,15.2,25.6,26.83,35.48l-54.69,90.91c-8.28.43-15.13,3.54-20.54,9.33-5.41,5.8-8.11,12.64-8.11,20.52,0,8.42,2.96,15.59,8.89,21.51,5.92,5.93,13.09,8.89,21.51,8.89s15.6-2.96,21.52-8.89c5.92-5.92,8.88-13.09,8.88-21.51,0-2.28-.27-4.45-.81-6.51-.54-2.06-1.4-4.08-2.56-6.09l71.72-119.68c-14.56-5.2-26.3-13.9-35.24-26.11-8.93-12.2-13.4-26.21-13.4-42.03,0-19.98,7.06-37.04,21.2-51.17,14.13-14.13,31.18-21.2,51.17-21.2s37.04,7.07,51.17,21.2c14.13,14.13,21.2,31.19,21.2,51.17h33.4c0-29.23-10.32-54.17-30.96-74.81Z" style="fill:gray;"/><circle cx="227.06" cy="104.54" r="31.5" style="fill:#e05ed7;"/></g></svg>